<svg xmlns="http://www.w3.org/2000/svg" width="300" height="180.717" viewBox="0 0 300 180.717">
  <g id="Groupe_24" data-name="Groupe 24" transform="translate(0 0)">
    <path id="Tracé_309" data-name="Tracé 309" d="M175.632,549.418l-1.8-7.106a92.261,92.261,0,0,0-9.789-3.512l-.227,3.3-.922-3.638c-4.125-1.178-6.932-1.7-6.932-1.7s3.791,14.416,11.742,25.436l9.265,1.627-7.2,1.038a37.338,37.338,0,0,0,3.22,3.412c11.567,10.736,24.449,15.662,28.775,11s-1.545-17.141-13.111-27.877a49.144,49.144,0,0,0-12.6-8.1Z" transform="translate(-155.96 -417.099)" fill="#e6e6e6"/>
    <path id="Tracé_310" data-name="Tracé 310" d="M238.287,510.212l2.131-7.014a92.276,92.276,0,0,0-6.564-8.066l-1.9,2.709,1.091-3.591c-2.922-3.141-5.057-5.036-5.057-5.036s-4.206,14.3-3.1,27.844l7.09,6.182-6.7-2.832a37.333,37.333,0,0,0,.992,4.585c4.352,15.169,12.834,26.045,18.946,24.292s7.538-15.472,3.186-30.641a49.145,49.145,0,0,0-6.6-13.448Z" transform="translate(-201.481 -385.609)" fill="#e6e6e6"/>
    <rect id="Rectangle_49" data-name="Rectangle 49" width="299.973" height="0.757" transform="translate(0.027 164.732)" fill="#3f3d56"/>
    <path id="Tracé_311" data-name="Tracé 311" d="M280.786,432.23s-2.336,28.088-2.838,34.107a42.8,42.8,0,0,1-2.508,11.034,10.376,10.376,0,0,0-1,4.013v25.58a1.491,1.491,0,0,0-1.5,2.006c.5,2.006,1,5.517,1,5.517h7.523a1.553,1.553,0,0,1,1-2.006c1.5-.5,0-4.514,0-4.514l8.025-30.094,12.038-25.078s7.022,22.57,8.527,25.078c0,0,5.517,28.088,6.52,30.6s1.5,2.508,1,3.511a2.239,2.239,0,0,0,0,2.508c.5.5,10.031,0,10.031,0L326.1,478.876l-4.514-42.633-23.072-7.022Z" transform="translate(-233.365 -345.882)" fill="#2f2e41"/>
    <path id="Tracé_312" data-name="Tracé 312" d="M267.282,660.579s-2.508-9.028-6.52-2.006-4.013,9.53-4.013,9.53-6.52,9.53,2.508,8.527,7.022-5.517,7.022-5.517,3.511-2.006,3.511-3.511S267.282,660.579,267.282,660.579Z" transform="translate(-221.194 -495.986)" fill="#2f2e41"/>
    <path id="Tracé_313" data-name="Tracé 313" d="M407.743,657.61s2.508-9.028,6.52-2.006,4.013,9.53,4.013,9.53,6.52,9.53-2.508,8.527-7.022-5.517-7.022-5.517-3.511-2.006-3.511-3.511S407.743,657.61,407.743,657.61Z" transform="translate(-321.028 -494.02)" fill="#2f2e41"/>
    <path id="Tracé_314" data-name="Tracé 314" d="M337.8,237.686s1,6.52-2.006,8.025,6.52,7.022,9.028,7.022,7.022-5.016,7.022-5.016-2.508-7.523-2.006-9.028Z" transform="translate(-274.661 -219.049)" fill="#a0616a"/>
    <circle id="Ellipse_52" data-name="Ellipse 52" cx="10.533" cy="10.533" r="10.533" transform="translate(58.126 2.587)" fill="#a0616a"/>
    <path id="Tracé_315" data-name="Tracé 315" d="M337.136,268.484l-12.539-7.6s-7.134,8.1-14.853-.93l-13.236,3.511,2.006,34.106s-3.009,13.542-2.006,16.05-2.508,3.511-1.5,4.012,0,4.013,0,4.013,19.561,10.031,41.128,2.508l-2.006-6.52a5.263,5.263,0,0,0-1-5.016s2.006-3.009-.5-5.517c0,0,1-4.514-1.5-6.52l-.5-7.022,1.5-3.511Z" transform="translate(-247.913 -233.797)" fill="#cfcce0"/>
    <path id="Tracé_316" data-name="Tracé 316" d="M332.053,190.744s-1.256,2.718,3.767,1.631c0,0,1.884,1.087,1.884-.544,0,0,2.511,2.718,3.139,1.087s1.884.544,1.884.544l1.256-2.718,1.256,1.631h4.395s1.256-10.87-13.813-9.783-7.656,18.31-7.656,18.31.121-3.091,1.377-1.461S332.053,190.744,332.053,190.744Z" transform="translate(-268.785 -182.515)" fill="#2f2e41"/>
    <path id="Tracé_317" data-name="Tracé 317" d="M414.98,344.589l.5,10.533s2.006,19.561-2.006,28.088v4.514s-1,11.536-6.019,11.034,1.5-16.552,1.5-16.552l-1-22.069-1-12.539Z" transform="translate(-321.243 -289.839)" fill="#a0616a"/>
    <path id="Tracé_318" data-name="Tracé 318" d="M394.9,285.09l5-.813a24.428,24.428,0,0,1,7.034,12.85c1.5,8.025,2.006,9.53,2.006,9.53l-12.038,3.009-6.52-12.539Z" transform="translate(-311.196 -249.901)" fill="#cfcce0"/>
    <rect id="Rectangle_50" data-name="Rectangle 50" width="79.152" height="39.319" transform="translate(62.162 29.464)" fill="#fff"/>
    <path id="Tracé_319" data-name="Tracé 319" d="M354.942,274.61a9.25,9.25,0,0,0-5.418-1.036,7.987,7.987,0,0,0,8.871,5.338A9.257,9.257,0,0,0,354.942,274.61Z" transform="translate(-284.137 -242.781)" fill="#eb786b"/>
    <path id="Tracé_320" data-name="Tracé 320" d="M363.33,348.571H350.62a2.86,2.86,0,1,0,0,5.719h12.71a2.86,2.86,0,1,0,0-5.719Z" transform="translate(-282.969 -292.476)" fill="#eb786b"/>
    <path id="Tracé_321" data-name="Tracé 321" d="M412.162,259.215H340.9a6.312,6.312,0,0,0-6.312,6.312v34.718a6.312,6.312,0,0,0,6.312,6.312h71.258a6.312,6.312,0,0,0,6.312-6.312V265.527a6.312,6.312,0,0,0-6.312-6.312Zm-73.021,4.306A8.711,8.711,0,0,1,349.25,269.6l.112.347-.359.064a9.525,9.525,0,0,1-1.546.114,9.207,9.207,0,0,1-4.694-1.183,9.971,9.971,0,0,1-3.868-5.012l-.112-.347Zm15.468,32.234H341.9a3.5,3.5,0,1,1,0-6.99h12.71a3.5,3.5,0,0,1,0,6.99Zm57.828-.635a3.824,3.824,0,0,1-3.813,3.813h-9.532a3.824,3.824,0,0,1-3.813-3.813V289.4a3.824,3.824,0,0,1,3.813-3.813h9.532a3.824,3.824,0,0,1,3.813,3.813Z" transform="translate(-274.249 -233.305)" fill="#eb786b"/>
    <path id="Tracé_322" data-name="Tracé 322" d="M524.19,362.209h-4.131a1.112,1.112,0,1,0,0,2.224h4.131a1.112,1.112,0,1,0,0-2.224Zm0,1.589h-4.131a.477.477,0,1,1,0-.953h4.131a.477.477,0,1,1,0,.953Z" transform="translate(-396.327 -301.507)" fill="#5a69be"/>
    <path id="Tracé_323" data-name="Tracé 323" d="M546.764,362.209h-4.131a1.112,1.112,0,0,0,0,2.224h4.131a1.112,1.112,0,0,0,0-2.224Zm0,1.589h-4.131a.477.477,0,1,1,0-.953h4.131a.477.477,0,0,1,0,.953Z" transform="translate(-411.276 -301.507)" fill="#5a69be"/>
    <path id="Tracé_324" data-name="Tracé 324" d="M524.19,353.744h-4.131a1.112,1.112,0,1,0,0,2.224h4.131a1.112,1.112,0,1,0,0-2.224Zm0,1.589h-4.131a.477.477,0,1,1,0-.953h4.131a.477.477,0,1,1,0,.953Z" transform="translate(-396.327 -295.902)" fill="#5a69be"/>
    <path id="Tracé_325" data-name="Tracé 325" d="M546.764,353.744h-4.131a1.112,1.112,0,0,0,0,2.224h4.131a1.112,1.112,0,0,0,0-2.224Zm0,1.589h-4.131a.477.477,0,1,1,0-.953h4.131a.477.477,0,0,1,0,.953Z" transform="translate(-411.276 -295.902)" fill="#5a69be"/>
    <path id="Tracé_326" data-name="Tracé 326" d="M524.19,345.279h-4.131a1.112,1.112,0,1,0,0,2.224h4.131a1.112,1.112,0,1,0,0-2.224Zm0,1.589h-4.131a.477.477,0,1,1,0-.953h4.131a.477.477,0,1,1,0,.953Z" transform="translate(-396.327 -290.296)" fill="#5a69be"/>
    <path id="Tracé_327" data-name="Tracé 327" d="M546.764,345.279h-4.131a1.112,1.112,0,0,0,0,2.224h4.131a1.112,1.112,0,0,0,0-2.224Zm0,1.589h-4.131a.477.477,0,1,1,0-.953h4.131a.477.477,0,0,1,0,.953Z" transform="translate(-411.276 -290.296)" fill="#5a69be"/>
    <path id="Tracé_328" data-name="Tracé 328" d="M274.136,302.05s-4.514,19.06,1,19.06S293.7,299.542,293.7,299.542s13.542-7.022,8.025-9.53-12.539,4.013-12.539,4.013l-8.1,11.249-.424-5.732Z" transform="translate(-233.064 -253.319)" fill="#a0616a"/>
    <path id="Tracé_329" data-name="Tracé 329" d="M284.145,273.36l-3.009-3.009s-6.019,3.511-6.52,7.022-3.009,14.545-3.009,14.545l9.279.752,3.009-4.514Z" transform="translate(-232.54 -240.679)" fill="#cfcce0"/>
    <path id="Tracé_330" data-name="Tracé 330" d="M724.569,232.032c-.378-1.116-5.116-4.908-2.213-5.546l2.381,3.175,10.947-10.947,1.1,1.1Z" transform="translate(-530.403 -206.486)" fill="#eb786b"/>
    <path id="Tracé_331" data-name="Tracé 331" d="M724.569,342.226c-.378-1.116-5.116-4.908-2.213-5.546l2.381,3.175,10.947-10.947,1.1,1.1Z" transform="translate(-530.403 -279.456)" fill="#eb786b"/>
    <path id="Tracé_332" data-name="Tracé 332" d="M724.569,453.994c-.378-1.116-5.116-4.908-2.213-5.546l2.381,3.175,10.947-10.947,1.1,1.1Z" transform="translate(-530.403 -353.467)" fill="#eb786b"/>
    <circle id="Ellipse_53" data-name="Ellipse 53" cx="3.378" cy="3.378" r="3.378" transform="translate(223.946 17.641)" fill="#3f3d56"/>
    <rect id="Rectangle_51" data-name="Rectangle 51" width="54.387" height="0.676" transform="translate(239.992 20.681)" fill="#3f3d56"/>
    <circle id="Ellipse_54" data-name="Ellipse 54" cx="3.378" cy="3.378" r="3.378" transform="translate(223.946 54.865)" fill="#3f3d56"/>
    <rect id="Rectangle_52" data-name="Rectangle 52" width="54.387" height="0.676" transform="translate(239.992 57.906)" fill="#3f3d56"/>
    <circle id="Ellipse_55" data-name="Ellipse 55" cx="3.378" cy="3.378" r="3.378" transform="translate(223.946 92.621)" fill="#3f3d56"/>
    <rect id="Rectangle_53" data-name="Rectangle 53" width="54.387" height="0.676" transform="translate(239.992 95.662)" fill="#3f3d56"/>
    <path id="Tracé_333" data-name="Tracé 333" d="M566.93,278.713H550.04V261.485h11.486v.676h-10.81v15.877h15.539v-7.77h.676Z" transform="translate(-364.232 -173.154)" fill="#3f3d56"/>
    <path id="Tracé_334" data-name="Tracé 334" d="M566.93,166.713H550.04V149.485h11.486v.676h-10.81v15.877h15.539v-7.77h.676Z" transform="translate(-364.232 -98.988)" fill="#3f3d56"/>
    <path id="Tracé_335" data-name="Tracé 335" d="M566.93,52.713H550.04V35.485h11.486v.676h-10.81V52.038h15.539v-7.77h.676Z" transform="translate(-364.232 -23.498)" fill="#3f3d56"/>
  </g>
</svg>
