<svg xmlns="http://www.w3.org/2000/svg" xmlns:xlink="http://www.w3.org/1999/xlink" width="300.652" height="176.009" viewBox="0 0 300.652 176.009">
  <defs>
    <linearGradient id="linear-gradient" x1="0.5" y1="1" x2="0.5" gradientUnits="objectBoundingBox">
      <stop offset="0" stop-color="gray" stop-opacity="0.251"/>
      <stop offset="0.535" stop-color="gray" stop-opacity="0.122"/>
      <stop offset="1" stop-color="gray" stop-opacity="0.102"/>
    </linearGradient>
  </defs>
  <g id="Groupe_22" data-name="Groupe 22" transform="translate(0 0)">
    <circle id="Ellipse_41" data-name="Ellipse 41" cx="7.639" cy="7.639" r="7.639" transform="translate(172.633 15.634)" fill="none" stroke="#3f3d56" stroke-miterlimit="10" stroke-width="1"/>
    <path id="Tracé_237" data-name="Tracé 237" d="M697.32,184.644l-1.847-1.857a.981.981,0,0,0-1.392-.01l-11.594,11.5-4.9-4.941a.978.978,0,0,0-1.383-.01l-1.866,1.847a.989.989,0,0,0-.01,1.392l7.445,7.5a.989.989,0,0,0,1.392.01l14.146-14.04a.981.981,0,0,0,.01-1.392Z" transform="translate(-501.479 -175.737)" fill="#eb786b"/>
    <rect id="Rectangle_34" data-name="Rectangle 34" width="138.504" height="15.787" rx="7.893" transform="translate(0 19.454)" fill="#f2f2f2"/>
    <rect id="Rectangle_35" data-name="Rectangle 35" width="138.504" height="15.787" rx="7.893" transform="translate(0.173 46.825)" fill="#f2f2f2"/>
    <rect id="Rectangle_36" data-name="Rectangle 36" width="138.504" height="15.787" rx="7.893" transform="translate(0.346 74.198)" fill="#f2f2f2"/>
    <rect id="Rectangle_37" data-name="Rectangle 37" width="138.504" height="15.787" rx="7.893" transform="translate(0.519 101.569)" fill="#f2f2f2"/>
    <rect id="Rectangle_38" data-name="Rectangle 38" width="138.504" height="15.787" rx="7.893" transform="translate(4.329 15.38)" fill="none" stroke="#3f3d56" stroke-miterlimit="10" stroke-width="1"/>
    <rect id="Rectangle_39" data-name="Rectangle 39" width="138.504" height="15.787" rx="7.893" transform="translate(4.502 42.752)" fill="none" stroke="#3f3d56" stroke-miterlimit="10" stroke-width="1"/>
    <rect id="Rectangle_40" data-name="Rectangle 40" width="138.504" height="15.787" rx="7.893" transform="translate(4.675 70.123)" fill="none" stroke="#3f3d56" stroke-miterlimit="10" stroke-width="1"/>
    <rect id="Rectangle_41" data-name="Rectangle 41" width="138.504" height="15.787" rx="7.893" transform="translate(4.848 97.495)" fill="none" stroke="#3f3d56" stroke-miterlimit="10" stroke-width="1"/>
    <circle id="Ellipse_42" data-name="Ellipse 42" cx="7.639" cy="7.639" r="7.639" transform="translate(172.633 43.134)" fill="none" stroke="#3f3d56" stroke-miterlimit="10" stroke-width="1"/>
    <circle id="Ellipse_43" data-name="Ellipse 43" cx="7.639" cy="7.639" r="7.639" transform="translate(172.633 70.633)" fill="none" stroke="#3f3d56" stroke-miterlimit="10" stroke-width="1"/>
    <circle id="Ellipse_44" data-name="Ellipse 44" cx="7.639" cy="7.639" r="7.639" transform="translate(172.633 98.132)" fill="none" stroke="#3f3d56" stroke-miterlimit="10" stroke-width="1"/>
    <path id="Tracé_238" data-name="Tracé 238" d="M697.32,276.022l-1.847-1.857a.981.981,0,0,0-1.392-.01l-11.594,11.5-4.9-4.941a.978.978,0,0,0-1.383-.01l-1.866,1.847a.989.989,0,0,0-.01,1.392l7.445,7.5a.989.989,0,0,0,1.392.01l14.146-14.04a.981.981,0,0,0,.01-1.392Z" transform="translate(-501.479 -239.361)" fill="#eb786b"/>
    <path id="Tracé_239" data-name="Tracé 239" d="M697.32,458.777l-1.847-1.857a.981.981,0,0,0-1.392-.01l-11.594,11.5-4.9-4.941a.978.978,0,0,0-1.383-.01l-1.866,1.847a.989.989,0,0,0-.01,1.392l7.445,7.5a.989.989,0,0,0,1.392.01l14.146-14.04a.981.981,0,0,0,.01-1.392Z" transform="translate(-501.479 -366.609)" fill="#eb786b"/>
    <ellipse id="Ellipse_45" data-name="Ellipse 45" cx="46.774" cy="7.289" rx="46.774" ry="7.289" transform="translate(199.012 161.43)" fill="#f2f2f2"/>
    <ellipse id="Ellipse_46" data-name="Ellipse 46" cx="46.774" cy="7.289" rx="46.774" ry="7.289" transform="translate(206.605 158.697)" fill="none" stroke="#3f3d56" stroke-miterlimit="10" stroke-width="1"/>
    <path id="Tracé_240" data-name="Tracé 240" d="M911,193.62q-.2-.231-.417-.449c1.1-1.244,2.231-2.519,2.221-4.118-.012-1.943-1.736-3.433-2.38-5.27-.876-2.5.34-5.177.84-7.775A14.58,14.58,0,0,0,908.107,164a4.215,4.215,0,0,0-1.848-1.415c-1.147-.361-2.366.141-3.561.288-3.943.487-7.531-2.911-11.493-2.607a2.137,2.137,0,0,0-.763.171,3.233,3.233,0,0,0-1.108,1.253c-1.231,1.811-3.3,2.711-5.354,3.641a2.8,2.8,0,0,0-.731.335c-.618.288-1.226.587-1.8.927-3.882,2.3-3.319,5.513-1.03,7.5-.447,2.229-2.726,4.192-2.334,6.485.308,1.8,2.179,3.02,2.539,4.807a4.824,4.824,0,0,1-.578,3.009c-4.344,1.005-9.252,2.857-9.635,6.124-.666,5.684-2.672,21.384-2.672,21.384s-2.323,12.579,6.505,6.632l-.113.335a73.168,73.168,0,0,0-3.241,14.827c-.089.75-.269,1.341-.6,1.534-.118.07.116.181.626.32-.058.212-.12.422-.175.634a60.259,60.259,0,0,0-1.852,11.229,78.991,78.991,0,0,1-1.387,10c-2.091,10.52,0,24.014,0,24.014l4.563,21.485.781,3.673a5.459,5.459,0,0,0,1.85,1.335,28.63,28.63,0,0,1,.634,4c.012.15.022.3.032.454a1.908,1.908,0,0,0-1.354.845c-1.626,2.287.232,4.117-6.041,8.691-1.621,1.182-2.4,2.256-2.6,3.169h0a2.134,2.134,0,0,0,1.078,2.315h0a3.917,3.917,0,0,0,.439.245l.007,0q.115.055.236.1h0q.121.05.248.094l.015,0q.119.041.242.077l.018.005q.128.037.26.069l.023.005q.121.028.246.052l.032.006q.133.025.269.044l.03,0q.122.017.246.029l.047,0q.136.013.273.02h.035q.122.006.245.007h.058c.092,0,.184,0,.276,0l.036,0q.122,0,.246-.014l.065,0c.092-.008.184-.017.276-.028l.033,0q.124-.016.247-.036l.069-.012c.092-.016.183-.033.274-.053l.026-.006c.083-.018.166-.039.249-.06l.07-.019c.09-.025.18-.051.269-.079l.015,0c.085-.027.169-.057.252-.088l.067-.025c.088-.034.175-.069.262-.106,4.182-1.83,12.779-6.632,12.779-6.632v-.28c0-.024,0-.047,0-.074v-.07c0-.032,0-.063,0-.1s0-.05,0-.075,0-.072,0-.112q0-.095,0-.2h0c-.043-2-.24-6.59-1.15-6.41-.31.061-.521.5-.738,1l-.108-.2a19.322,19.322,0,0,1-2.291-7.5,13.428,13.428,0,0,0,1.975-1.752s-.467-1.967-.864-4.041a19.87,19.87,0,0,1-.53-4.421c.232-1.6-2.788-13.951-2.788-13.951s.311-2.717.936-6.493c1.215-7.339,3.608-18.681,7.179-21.887.084-.073.165-.144.249-.208,0,0,2.556.457,4.647,14.866l.606,6.417a37.262,37.262,0,0,0,.9,5.274,27.772,27.772,0,0,1,.583,8.435c-.265,3.783-.379,8.236-.427,11.362-.037,2.356-.037,3.961-.037,3.961a8.772,8.772,0,0,0,1.394.963v2.1a1.746,1.746,0,0,1-.489,1.193l-.008.009a3.241,3.241,0,0,0-.7,1.291,9.508,9.508,0,0,0-.892,3.823c-.465,6.175-.7,5.489-.7,5.489a8.145,8.145,0,0,0-.527,2.082h0c-.013.134-.022.268-.024.4,0,.021,0,.042,0,.063q0,.093,0,.185,0,.045,0,.09,0,.068.011.136t.015.123c0,.029.008.058.013.087q.014.082.033.162c.006.024.012.048.018.071.015.056.031.111.049.165.006.017.013.034.019.05q.028.074.06.145c.007.014.013.029.02.043.027.055.057.109.09.161l.027.043a1.72,1.72,0,0,0,.111.151l.029.033a1.673,1.673,0,0,0,.14.144l.016.013a1.7,1.7,0,0,0,.161.124l.026.018a1.871,1.871,0,0,0,.191.109l.039.019a2.115,2.115,0,0,0,.218.089l.039.012a2.508,2.508,0,0,0,.258.07l.009,0c.09.019.187.033.287.044l.041,0c.1.01.2.015.313.017h.061c.11,0,.225,0,.345-.011l.057,0c.128-.01.26-.023.4-.043,4.879-.686,7.2-1.144,6.97-3.888-.14-1.654-.533-4.056-.824-5.7a8.573,8.573,0,0,0-.8-2.405q.018-.193.034-.4a8.73,8.73,0,0,0-.265-3.387l.107-2a6.384,6.384,0,0,0,3.146-1.886s.035-1.484.137-3.451c.153-3.04.46-7.234,1.025-8.9.929-2.744,0-12.35,0-12.35s-3.485-16.467-.232-23.557a21.559,21.559,0,0,0,.085-18.608.944.944,0,0,0,.148-.146s-.7-.457-.465-5.718a30.139,30.139,0,0,0-1.565-9.9,24.21,24.21,0,0,0,2.727.979c5.344,1.6,5.809-4.345,5.809-4.345l1.161-8.92,1.378-13.3h0C913.179,199.278,913.683,196.672,911,193.62Zm-23.62-8.813c-.007.147-.016.294-.031.441a5.91,5.91,0,0,1-.3,1.389,9.222,9.222,0,0,0,.288-1.855l.041.026Zm14.047,32.469c.083.151.161.3.236.442l-.587-.3a13.145,13.145,0,0,1,1.047-3.116,22.057,22.057,0,0,0,1.42-3.59,35.846,35.846,0,0,0,.206,4.276C904.219,218.648,901.431,217.276,901.431,217.276Z" transform="translate(-634.66 -160.25)" fill="url(#linear-gradient)"/>
    <path id="Tracé_241" data-name="Tracé 241" d="M911.5,180.657a4.05,4.05,0,0,0-1.783,1.951c-.426,1.386.644,2.777.75,4.223.192,2.629-2.781,4.8-2.343,7.4.3,1.782,2.127,2.995,2.479,4.767.513,2.585-2.289,4.865-2.068,7.491a5.2,5.2,0,0,0,2.194,3.454,10.681,10.681,0,0,0,5.359,2.2c-.13-2.249-1.8-4.295-1.512-6.529.2-1.532,1.274-2.785,1.9-4.2,1.095-2.481.745-5.353.088-7.984s-1.605-5.232-1.653-7.944c-.029-1.632.737-4.031.175-5.58C914.4,178.028,912.773,179.79,911.5,180.657Z" transform="translate(-664.431 -173.357)" fill="#3f3d56"/>
    <path id="Tracé_242" data-name="Tracé 242" d="M911.5,180.863a4.05,4.05,0,0,0-1.783,1.951c-.426,1.386.644,2.777.75,4.223.192,2.629-2.781,4.8-2.343,7.4.3,1.782,2.127,2.995,2.479,4.767.513,2.585-2.289,4.865-2.068,7.491a5.2,5.2,0,0,0,2.194,3.454,10.681,10.681,0,0,0,5.359,2.2c-.13-2.249-1.8-4.295-1.512-6.529.2-1.532,1.274-2.785,1.9-4.2,1.095-2.481.745-5.353.088-7.984s-1.6-5.232-1.653-7.944c-.029-1.632.737-4.031.175-5.58C914.4,178.234,912.773,180,911.5,180.863Z" transform="translate(-664.431 -173.5)" opacity="0.1"/>
    <path id="Tracé_243" data-name="Tracé 243" d="M904.661,657.074l-2.041,2.041s-7.258,3.856-6.351-1.361a18.763,18.763,0,0,0,.156-4.691,29.149,29.149,0,0,0-1.291-6.423l6.8-1.361c-1.132,3.556.733,8.034,1.9,10.313C904.3,656.512,904.661,657.074,904.661,657.074Z" transform="translate(-655.418 -497.964)" fill="#ffb9b9"/>
    <path id="Tracé_244" data-name="Tracé 244" d="M962.587,649.309a20.807,20.807,0,0,1-.259,2.084s-5.671,3.856-6.124-.454c-.295-2.808.372-4.076.875-4.618l.008-.009a1.745,1.745,0,0,0,.478-1.183v-5.078l4.99,1.588-.227,4.31A8.8,8.8,0,0,1,962.587,649.309Z" transform="translate(-697.889 -494.324)" fill="#ffb9b9"/>
    <path id="Tracé_245" data-name="Tracé 245" d="M907.08,674.87l-2.041,2.041s-7.258,3.856-6.351-1.361a18.771,18.771,0,0,0,.156-4.691c1.59-.234,3.473,1.515,3.473,1.515,2.658,3.752,3.375,2.332,3.938,1.014C906.725,674.307,907.08,674.87,907.08,674.87Z" transform="translate(-657.838 -515.759)" opacity="0.05"/>
    <path id="Tracé_246" data-name="Tracé 246" d="M880.44,673.865s-3.175-2.949-4.763-.68.227,4.083-5.9,8.619,0,7.485,4.083,5.67,12.475-6.578,12.475-6.578,0-7.485-1.134-7.258S884.3,679.309,880.44,673.865Z" transform="translate(-635.96 -516.796)" fill="#3f3d56"/>
    <path id="Tracé_247" data-name="Tracé 247" d="M962.587,663.054a20.8,20.8,0,0,1-.259,2.084s-5.671,3.856-6.124-.454c-.295-2.808.372-4.076.875-4.618a1.355,1.355,0,0,1,1.393-.145c.907-.4,1.905.27,2.731,1.141A8.021,8.021,0,0,1,962.587,663.054Z" transform="translate(-697.889 -508.069)" opacity="0.05"/>
    <path id="Tracé_248" data-name="Tracé 248" d="M954.281,661.414s-2.495-1.361-2.949,4.763-.681,5.444-.681,5.444-2.268,5.444,2.495,4.763,7.031-1.134,6.8-3.856c-.137-1.641-.521-4.023-.8-5.656a8.317,8.317,0,0,0-2.135-4.318C956.185,661.682,955.189,661.01,954.281,661.414Z" transform="translate(-693.698 -509.107)" fill="#3f3d56"/>
    <path id="Tracé_249" data-name="Tracé 249" d="M907.528,456.135s.907,9.526,0,12.248c-.551,1.651-.851,5.811-1,8.825-.1,1.951-.134,3.423-.134,3.423-4.309,4.536-9.3,0-9.3,0s0-1.592.036-3.928c.048-3.1.159-7.517.417-11.268a27.97,27.97,0,0,0-.569-8.365,37.474,37.474,0,0,1-.88-5.23l-.592-6.364c-2.041-14.289-4.536-14.743-4.536-14.743-.082.064-.161.134-.243.206-3.486,3.18-5.822,14.428-7.009,21.706-.61,3.745-.914,6.439-.914,6.439s2.949,12.248,2.722,13.836a20.01,20.01,0,0,0,.517,4.384c.388,2.057.844,4.008.844,4.008-5.67,6.124-9.526,1.361-9.526,1.361l-.762-3.643-4.455-21.307s-2.041-13.382,0-23.816a79.487,79.487,0,0,0,1.354-9.919,60.638,60.638,0,0,1,1.808-11.137q.415-1.619.921-3.214a111.888,111.888,0,0,1,16.537-1.481c6.015,0,11.749.832,13.4,3.749q.572,1.007,1.039,2.019a21.725,21.725,0,0,1,.1,18.848C904.126,439.8,907.528,456.135,907.528,456.135Z" transform="translate(-638.78 -332.861)" fill="#3f3d56"/>
    <path id="Tracé_250" data-name="Tracé 250" d="M913.467,239.29s-12.021-12.248-2.949-11.341a6.1,6.1,0,0,0,4.373-.851,4.394,4.394,0,0,0,1.617-3.241,13.372,13.372,0,0,0-.773-5.208s12.248-9.753,9.753,2.495a20.884,20.884,0,0,0-.476,3.786c-.041,2.6.814,3.6,2.014,4,2.023.692,5.031-.277,6.4,1.964C935.92,234.98,913.467,239.29,913.467,239.29Z" transform="translate(-663.771 -198.35)" fill="#ffb9b9"/>
    <path id="Tracé_251" data-name="Tracé 251" d="M913.467,239.29s-12.021-12.248-2.949-11.341a6.1,6.1,0,0,0,4.373-.851,4.394,4.394,0,0,0,1.617-3.241,13.372,13.372,0,0,0-.773-5.208s12.248-9.753,9.753,2.495a20.884,20.884,0,0,0-.476,3.786c-.041,2.6.814,3.6,2.014,4,2.023.692,5.031-.277,6.4,1.964C935.92,234.98,913.467,239.29,913.467,239.29Z" transform="translate(-663.771 -198.35)" opacity="0.1"/>
    <path id="Tracé_252" data-name="Tracé 252" d="M943.018,193.529a9.753,9.753,0,0,1-19.506,0c0-.181,0-.363.016-.542a9.753,9.753,0,0,1,19.49.542Z" transform="translate(-675.177 -176.631)" fill="#ffb9b9"/>
    <path id="Tracé_253" data-name="Tracé 253" d="M913.467,267.1s-12.021-12.248-2.949-11.341a6.1,6.1,0,0,0,4.373-.851c-1.756,2.912-3.731,8.149,5.153,7.655,8.131-.451,7.993-3.693,6.981-5.82,2.023.692,5.031-.277,6.4,1.964C935.92,262.786,913.467,267.1,913.467,267.1Z" transform="translate(-663.771 -226.155)" opacity="0.05"/>
    <path id="Tracé_254" data-name="Tracé 254" d="M916.856,414.855c-2.064,2.683-28.375-.835-32.221-2q.415-1.619.921-3.214a111.891,111.891,0,0,1,16.537-1.481c6.015,0,11.749.832,13.4,3.749q.572,1.007,1.039,2.019C916.679,414.737,916.856,414.855,916.856,414.855Z" transform="translate(-648.108 -332.861)" opacity="0.1"/>
    <path id="Tracé_255" data-name="Tracé 255" d="M892.952,250.983s-15.31,1.247-15.991,7.145c-.65,5.637-2.608,21.207-2.608,21.207s-2.268,12.475,6.351,6.578l-.111.332a73.556,73.556,0,0,0-3.163,14.7c-.087.744-.263,1.33-.582,1.521-1.134.68,30.393,5.217,32.661,2.268,0,0-.68-.454-.454-5.67a31.286,31.286,0,0,0-1.814-10.66,15.661,15.661,0,0,1,.68-10.66c2.495-5.217,1.588-6.8,1.588-6.8l8.619-6.578s1.861-3.191-1.541-7.13a11.788,11.788,0,0,0-8.1-3.992l-5.945-.423s6.515,7.008-5.733,7.688S892.952,250.983,892.952,250.983Z" transform="translate(-640.761 -223.425)" fill="#575a89"/>
    <path id="Tracé_256" data-name="Tracé 256" d="M899.8,292.056s.454,3.629-.454,4.763-1.134,6.351,0,9.526" transform="translate(-657.818 -252.023)" opacity="0.05"/>
    <path id="Tracé_257" data-name="Tracé 257" d="M918.753,471.251c-3.486,3.18-5.822,14.428-7.009,21.706-1.651-10.132,5.21-26.9,5.21-26.9Z" transform="translate(-666.805 -373.174)" opacity="0.1"/>
    <path id="Tracé_258" data-name="Tracé 258" d="M899.18,639.826c-5.67,6.124-9.526,1.361-9.526,1.361l-.762-3.643c2.143,1.114,5.766,1.978,9.445-1.726C898.724,637.876,899.18,639.826,899.18,639.826Z" transform="translate(-651.071 -491.376)" opacity="0.1"/>
    <path id="Tracé_259" data-name="Tracé 259" d="M965.8,634.346c-.1,1.951-.134,3.423-.134,3.423-4.309,4.536-9.3,0-9.3,0s0-1.592.036-3.928A9.347,9.347,0,0,0,965.8,634.346Z" transform="translate(-698.055 -489.998)" opacity="0.1"/>
    <rect id="Rectangle_42" data-name="Rectangle 42" width="15.423" height="6.351" rx="3.175" transform="translate(243.118 47.745)" fill="#cdd0db"/>
    <rect id="Rectangle_43" data-name="Rectangle 43" width="15.423" height="6.351" rx="3.175" transform="translate(243.118 47.745)" opacity="0.05"/>
    <rect id="Rectangle_44" data-name="Rectangle 44" width="15.423" height="6.351" rx="3.175" transform="translate(243.118 47.971)" fill="#3f3d56"/>
    <circle id="Ellipse_47" data-name="Ellipse 47" cx="0.68" cy="0.68" r="0.68" transform="translate(254.573 50.353)" fill="#9da7c0"/>
    <path id="Tracé_260" data-name="Tracé 260" d="M884.294,332.731a4.411,4.411,0,0,1,2.562-2.7,4.021,4.021,0,0,0,2.2-1.975c.895-1.98,2.482-4.021,6.565-2.66s-1.134,2.268-1.134,2.268,9.3-1.361,5.67,1.361a34.74,34.74,0,0,1-8.165,4.309l-2.234,2.365a3.338,3.338,0,0,1-4.986-.1A2.888,2.888,0,0,1,884.294,332.731Z" transform="translate(-647.739 -274.929)" opacity="0.05"/>
    <path id="Tracé_261" data-name="Tracé 261" d="M883.547,331.237a4.411,4.411,0,0,1,2.562-2.7,4.021,4.021,0,0,0,2.2-1.975c.895-1.98,2.482-4.021,6.565-2.66s-1.134,2.268-1.134,2.268,9.3-1.361,5.67,1.361a34.741,34.741,0,0,1-8.165,4.31l-2.234,2.365a3.338,3.338,0,0,1-4.986-.1A2.889,2.889,0,0,1,883.547,331.237Z" transform="translate(-647.219 -273.889)" fill="#ffb9b9"/>
    <path id="Tracé_262" data-name="Tracé 262" d="M953.524,338.913l-1.588,3.856-2.032-1.495-5.679-4.176-3.856-2.495c-5.444-4.083,0-4.763,0-4.763-2.041-.907,0-1.815,0-1.815,7.258-1.588,5.9,4.31,5.9,4.31l4.6,2.384,1.526.792Z" transform="translate(-685.229 -276.879)" opacity="0.05"/>
    <path id="Tracé_263" data-name="Tracé 263" d="M955.018,337.419l-1.588,3.856L951.4,339.78l-5.679-4.176-3.856-2.495c-5.444-4.083,0-4.763,0-4.763-2.041-.907,0-1.815,0-1.815,7.258-1.588,5.9,4.31,5.9,4.31l4.6,2.384,1.526.792Z" transform="translate(-686.269 -275.839)" fill="#ffb9b9"/>
    <path id="Tracé_264" data-name="Tracé 264" d="M982.423,353.385l-1.588,3.856-2.032-1.495c1.839.066,4.012-.823.959-6.555l1.526.792Z" transform="translate(-713.675 -291.805)" opacity="0.05"/>
    <path id="Tracé_265" data-name="Tracé 265" d="M987.672,287.575l.438,1.784-1.345,13.185-1.134,8.846s-.454,5.9-5.67,4.309-5.67-3.175-5.67-3.175,7.485,2.495,2.722-6.351c0,0,2.722,1.361,2.268-2.268a67.862,67.862,0,0,1,0-9.98Z" transform="translate(-710.532 -248.903)" fill="#575a89"/>
    <path id="Tracé_266" data-name="Tracé 266" d="M943.055,193.529a9.754,9.754,0,0,1-7.6,9.513,4.936,4.936,0,0,1-.32-2.837c.461-1.853,2.6-3.2,2.361-5.1a1.256,1.256,0,0,0-.216-.594c-.478-.631-1.454-.318-2.229-.161a4.243,4.243,0,0,1-4.745-2.926,6.629,6.629,0,0,1-6.745,1.563,9.753,9.753,0,0,1,19.49.542Z" transform="translate(-675.214 -176.632)" opacity="0.05"/>
    <path id="Tracé_267" data-name="Tracé 267" d="M921.044,176.232a4.239,4.239,0,0,0,4.743,2.925c.776-.155,1.751-.468,2.23.162a1.225,1.225,0,0,1,.215.592c.24,1.9-1.9,3.246-2.36,5.1-.474,1.909.917,3.753,1.213,5.7a23.152,23.152,0,0,1,0,3.224,3.978,3.978,0,0,0,1.051,2.954,1.891,1.891,0,0,0,2.807-.2c2.552,1.349,1.533,5.529,3.471,7.668a5.229,5.229,0,0,0,4.412,1.313,1.861,1.861,0,0,0,1.037-.335,1.8,1.8,0,0,0,.507-.954,7.735,7.735,0,0,0-.2-4.588,4.8,4.8,0,0,1-.525-2.16,3.2,3.2,0,0,1,.787-1.542c1.219-1.511,2.882-2.971,2.869-4.912s-1.694-3.4-2.323-5.226c-.855-2.479.332-5.134.82-7.71a14.626,14.626,0,0,0-3.087-11.907,4.122,4.122,0,0,0-1.8-1.4c-1.119-.358-2.31.14-3.476.286-3.85.483-7.352-2.887-11.22-2.585a2.058,2.058,0,0,0-.745.169,3.19,3.19,0,0,0-1.081,1.242c-1.707,2.553-5.064,3.28-7.7,4.862C905.01,173.524,915.166,181.889,921.044,176.232Z" transform="translate(-665.72 -161.892)" fill="#3f3d56"/>
    <path id="Tracé_268" data-name="Tracé 268" d="M873.866,704.147c-2.651,1.178-6.16.348-6.621-1.62-.556,2.6,3.594,3.873,6.621,2.528,4.083-1.815,12.475-6.578,12.475-6.578s0-.352-.012-.9C886.085,697.714,877.888,702.36,873.866,704.147Z" transform="translate(-635.964 -534.376)" fill="#fff" opacity="0.3"/>
    <path id="Tracé_269" data-name="Tracé 269" d="M959.943,697.871c-.261,2.04-2.525,2.469-6.793,3.079-2.17.31-2.879-.652-3.009-1.791-.142,1.458.272,3.089,3.009,2.7,4.763-.68,7.031-1.134,6.8-3.856C959.951,697.959,959.947,697.914,959.943,697.871Z" transform="translate(-693.701 -534.582)" fill="#fff" opacity="0.3"/>
    <g id="Groupe_20" data-name="Groupe 20" transform="translate(244.211 0.79)" opacity="0.1">
      <path id="Tracé_270" data-name="Tracé 270" d="M939.741,220.415a5.229,5.229,0,0,1-4.412-1.313c-1.938-2.139-.919-6.319-3.471-7.668a1.891,1.891,0,0,1-2.806.2A3.978,3.978,0,0,1,928,208.684a23.161,23.161,0,0,0,0-3.224c-.3-1.945-1.687-3.789-1.213-5.7.461-1.854,2.6-3.2,2.36-5.1a1.225,1.225,0,0,0-.215-.592c-.479-.631-1.454-.317-2.23-.163a4.239,4.239,0,0,1-4.743-2.925c-5.254,5.057-13.925-1.091-10.217-5.753-5.786,4.7,3.706,12.054,9.31,6.661a4.239,4.239,0,0,0,4.743,2.925c.776-.155,1.751-.468,2.23.163a1.226,1.226,0,0,1,.215.592c.24,1.9-1.9,3.246-2.36,5.1-.474,1.909.916,3.753,1.212,5.7a23.143,23.143,0,0,1,0,3.224,3.978,3.978,0,0,0,1.052,2.954,1.891,1.891,0,0,0,2.806-.2c2.552,1.349,1.533,5.529,3.471,7.668a5.229,5.229,0,0,0,4.412,1.313,1.861,1.861,0,0,0,1.037-.335,1.478,1.478,0,0,0,.419-.664,3.18,3.18,0,0,1-.549.091Z" transform="translate(-909.935 -178.433)"/>
      <path id="Tracé_271" data-name="Tracé 271" d="M944.507,163.209c.078-.116.153-.238.231-.358-.019.008-.038.014-.057.023a3.19,3.19,0,0,0-1.081,1.242q-.16.239-.338.457A6.483,6.483,0,0,0,944.507,163.209Z" transform="translate(-933.14 -162.851)"/>
    </g>
    <path id="Tracé_272" data-name="Tracé 272" d="M906.263,372.935s-.587,2.041,3.269,2.949S906.263,372.935,906.263,372.935Z" transform="translate(-663.144 -308.337)" opacity="0.1"/>
    <path id="Tracé_273" data-name="Tracé 273" d="M899.851,392.849s-1.968,1.436,2.78,3.931S899.851,392.849,899.851,392.849Z" transform="translate(-658.42 -322.203)" opacity="0.1"/>
    <path id="Tracé_274" data-name="Tracé 274" d="M886.232,461.925s5.344-1.512,6.074-3.78S886.232,461.925,886.232,461.925Z" transform="translate(-649.22 -367.312)" opacity="0.1"/>
    <path id="Tracé_275" data-name="Tracé 275" d="M886.232,566.349a9.2,9.2,0,0,0,3.759.983C891.449,567.181,886.232,566.349,886.232,566.349Z" transform="translate(-649.22 -443.006)" opacity="0.1"/>
    <path id="Tracé_276" data-name="Tracé 276" d="M888.892,576.8a7.711,7.711,0,0,0,2.952.6C893.755,577.484,888.892,576.8,888.892,576.8Z" transform="translate(-651.072 -450.286)" opacity="0.1"/>
    <path id="Tracé_277" data-name="Tracé 277" d="M1010.488,584.475a4.717,4.717,0,1,0,.628-9.046l.118,2.428-1.148-2.08a4.7,4.7,0,0,0-2.421,2.656,4.628,4.628,0,0,0-.271,1.276A4.715,4.715,0,0,0,1010.488,584.475Z" transform="translate(-733.573 -449.257)" fill="#eb786b"/>
    <path id="Tracé_278" data-name="Tracé 278" d="M1034.283,603.339c-.405-2.065,1.351-3.895,3.087-5.085s3.763-2.359,4.355-4.377c.851-2.9-1.684-5.559-3.657-7.851a28.4,28.4,0,0,1-3.745-5.565,7.663,7.663,0,0,1-.9-2.53,8.733,8.733,0,0,1,.674-3.793q2.08-6.13,4.448-12.158" transform="translate(-751.685 -439.964)" fill="none" stroke="#3f3d56" stroke-miterlimit="10" stroke-width="1"/>
    <path id="Tracé_279" data-name="Tracé 279" d="M1011.118,582.417a4.717,4.717,0,1,0,.628-9.046l.118,2.428-1.149-2.08a4.7,4.7,0,0,0-2.421,2.657,4.622,4.622,0,0,0-.271,1.276A4.716,4.716,0,0,0,1011.118,582.417Z" transform="translate(-734.012 -447.824)" fill="none" stroke="#3f3d56" stroke-miterlimit="10" stroke-width="1"/>
    <path id="Tracé_280" data-name="Tracé 280" d="M1033.771,552.1a4.711,4.711,0,0,1,3.395-2.991l.388,2.308.72-2.424a4.716,4.716,0,1,1-4.5,3.107Z" transform="translate(-751.75 -430.919)" fill="#eb786b"/>
    <path id="Tracé_281" data-name="Tracé 281" d="M1034.623,549.353a4.711,4.711,0,0,1,3.4-2.991l.388,2.308.72-2.424a4.716,4.716,0,1,1-4.5,3.107Z" transform="translate(-752.344 -429.009)" fill="none" stroke="#3f3d56" stroke-miterlimit="10" stroke-width="1"/>
    <path id="Tracé_282" data-name="Tracé 282" d="M1038.922,620.327a4.716,4.716,0,0,0,4.174-8.39l-.553,1.863-.392-2.335-.012,0a4.716,4.716,0,0,0-3.217,8.867Z" transform="translate(-753.369 -474.218)" fill="#eb786b"/>
    <path id="Tracé_283" data-name="Tracé 283" d="M1039.662,617.548a4.716,4.716,0,0,0,4.174-8.39l-.553,1.863-.392-2.335-.012,0a4.716,4.716,0,1,0-3.217,8.867Z" transform="translate(-753.884 -472.283)" fill="none" stroke="#3f3d56" stroke-miterlimit="10" stroke-width="1"/>
    <path id="Tracé_284" data-name="Tracé 284" d="M1029.724,654.415a4.714,4.714,0,1,0,.909-3.693l2.1,3.163-2.871-1.679a4.671,4.671,0,0,0-.139,2.209Z" transform="translate(-749.079 -500.474)" fill="#eb786b"/>
    <path id="Tracé_285" data-name="Tracé 285" d="M1030.364,652.357a4.714,4.714,0,1,0,.909-3.693l2.1,3.163-2.871-1.679a4.673,4.673,0,0,0-.139,2.209Z" transform="translate(-749.525 -499.041)" fill="none" stroke="#3f3d56" stroke-miterlimit="10" stroke-width="1"/>
    <path id="Tracé_286" data-name="Tracé 286" d="M1014.76,698.758a41.067,41.067,0,0,0,5.416-2.524c1.254-.893,6.4-1.96,6.713-.527s6.255,7.124,1.556,7.162-10.918.771-12.17.008S1014.76,698.758,1014.76,698.758Z" transform="translate(-738.71 -532.587)" fill="#656380"/>
    <path id="Tracé_287" data-name="Tracé 287" d="M1028.525,710.959c-4.7.038-10.918.771-12.17.008-.953-.581-1.333-2.665-1.46-3.626l-.139.005s.264,3.357,1.516,4.119,7.471.03,12.17-.008c1.356-.011,1.825-.494,1.8-1.208C1030.052,710.681,1029.533,710.951,1028.525,710.959Z" transform="translate(-738.707 -541.175)" opacity="0.2"/>
  </g>
</svg>
