<svg xmlns="http://www.w3.org/2000/svg" width="273.299" height="244.38" viewBox="0 0 273.299 244.38">
  <g id="Groupe_23" data-name="Groupe 23" transform="translate(0 0)">
    <path id="Tracé_288" data-name="Tracé 288" d="M235.331,607.568l-3.052-12.039a156.341,156.341,0,0,0-16.586-5.95l-.385,5.6-1.563-6.164c-6.99-2-11.745-2.875-11.745-2.875s6.423,24.425,19.895,43.1l15.7,2.757-12.2,1.758a63.259,63.259,0,0,0,5.455,5.781c19.6,18.191,41.426,26.537,48.754,18.641s-2.617-29.043-22.215-47.233c-6.075-5.639-13.708-10.165-21.347-13.727Z" transform="translate(-202 -417.204)" fill="#e6e6e6"/>
    <path id="Tracé_289" data-name="Tracé 289" d="M339.612,542.438l3.61-11.884A156.316,156.316,0,0,0,332.1,516.887l-3.222,4.59,1.848-6.084c-4.952-5.322-8.568-8.532-8.568-8.532s-7.127,24.229-5.246,47.177l12.013,10.475-11.348-4.8a63.245,63.245,0,0,0,1.682,7.768c7.374,25.7,21.745,44.13,32.1,41.159s12.772-26.215,5.4-51.917c-2.286-7.968-6.48-15.787-11.179-22.785Z" transform="translate(-277.25 -365.148)" fill="#e6e6e6"/>
    <path id="Tracé_290" data-name="Tracé 290" d="M868.232,731.655,870.5,729.2a42.089,42.089,0,0,0-1.086-4.617l-1.32.733,1.163-1.256c-.573-1.871-1.071-3.073-1.071-3.073a40.328,40.328,0,0,0-6.817,10.807l1.677,3.949-2.184-2.5a17.013,17.013,0,0,0-.506,2.079c-1.236,7.09.077,13.242,2.934,13.74s6.175-4.846,7.411-11.936a22.412,22.412,0,0,0-.028-6.831Z" transform="translate(-634.012 -505.757)" fill="#e6e6e6"/>
    <path id="Tracé_291" data-name="Tracé 291" d="M955.075,748.679l3.212-.926a42.058,42.058,0,0,0,1.457-4.514l-1.509-.055,1.645-.474c.477-1.9.672-3.185.672-3.185a40.33,40.33,0,0,0-11.422,5.727l-.605,4.247-.579-3.266a17.013,17.013,0,0,0-1.508,1.518c-4.723,5.431-6.779,11.376-4.591,13.279s7.791-.957,12.514-6.387a22.417,22.417,0,0,0,3.507-5.863Z" transform="translate(-687.253 -517.929)" fill="#e6e6e6"/>
    <path id="Tracé_292" data-name="Tracé 292" d="M500.846,110.695V320.876a16.583,16.583,0,0,1-16.577,16.581H402.587A16.586,16.586,0,0,1,386,320.874V110.695a16.585,16.585,0,0,1,16.587-16.58H412.5a7.885,7.885,0,0,0,7.295,10.855h46.568a7.885,7.885,0,0,0,7.295-10.855h10.613a16.583,16.583,0,0,1,16.581,16.577Z" transform="translate(-322.825 -94.114)" fill="#3f3d56"/>
    <path id="Tracé_293" data-name="Tracé 293" d="M504.038,331.963a8.2,8.2,0,0,1,4.1-7.1,8.2,8.2,0,1,0,0,14.207A8.2,8.2,0,0,1,504.038,331.963Z" transform="translate(-394.949 -244.913)" fill="#fff"/>
    <path id="Tracé_294" data-name="Tracé 294" d="M534.074,331.963a8.2,8.2,0,0,1,4.1-7.1,8.2,8.2,0,1,0,0,14.207A8.2,8.2,0,0,1,534.074,331.963Z" transform="translate(-414.673 -244.913)" fill="#fff"/>
    <circle id="Ellipse_48" data-name="Ellipse 48" cx="8.203" cy="8.203" r="8.203" transform="translate(121.276 78.848)" fill="#eb786b"/>
    <rect id="Rectangle_45" data-name="Rectangle 45" width="73.325" height="0.687" transform="translate(83.972 140.737)" fill="#fff"/>
    <circle id="Ellipse_49" data-name="Ellipse 49" cx="2.316" cy="2.316" r="2.316" transform="translate(83.973 131.818)" fill="#eb786b"/>
    <rect id="Rectangle_46" data-name="Rectangle 46" width="73.325" height="0.687" transform="translate(83.972 163.892)" fill="#fff"/>
    <circle id="Ellipse_50" data-name="Ellipse 50" cx="2.316" cy="2.316" r="2.316" transform="translate(83.973 154.973)" fill="#eb786b"/>
    <path id="Tracé_295" data-name="Tracé 295" d="M524.325,324.275H476.516a1.719,1.719,0,0,1-1.717-1.717V274.749a1.719,1.719,0,0,1,1.717-1.717h47.809a1.719,1.719,0,0,1,1.717,1.717v47.809A1.719,1.719,0,0,1,524.325,324.275Zm-47.809-50.556a1.031,1.031,0,0,0-1.03,1.03v47.809a1.031,1.031,0,0,0,1.03,1.03h47.809a1.031,1.031,0,0,0,1.03-1.03V274.749a1.031,1.031,0,0,0-1.03-1.03Z" transform="translate(-381.136 -211.602)" fill="#fff"/>
    <rect id="Rectangle_47" data-name="Rectangle 47" width="25.857" height="10.806" rx="4" transform="translate(131.441 179.286)" fill="#eb786b"/>
    <rect id="Rectangle_48" data-name="Rectangle 48" width="273.026" height="0.687" transform="translate(0.273 243.005)" fill="#3f3d56"/>
    <path id="Tracé_296" data-name="Tracé 296" d="M824.1,419.2s-.951,6.02,0,6.97-6.02,8.871-6.02,8.871l-5.7-7.921s2.535-4.119,1.584-7.6Z" transform="translate(-602.81 -307.582)" fill="#ffb8b8"/>
    <path id="Tracé_297" data-name="Tracé 297" d="M575.74,456.156,571.62,500.2l1.583,34.218,7.6-2.218.318-30.732L590,474.85l5.385,28.832-.635,29.148,9.505.317.635-32.317L606,455.7Z" transform="translate(-375.36 -299.236)" fill="#2f2e41"/>
    <path id="Tracé_298" data-name="Tracé 298" d="M841.459,771.7v6.97s-1.584,5.069,3.485,4.752,4.752-2.535,4.752-2.535l-1.9-8.554Z" transform="translate(-621.753 -539.058)" fill="#2f2e41"/>
    <path id="Tracé_299" data-name="Tracé 299" d="M783.7,771.7v6.97s1.584,5.069-3.485,4.752-4.752-2.535-4.752-2.535l1.9-8.554Z" transform="translate(-578.565 -539.058)" fill="#2f2e41"/>
    <circle id="Ellipse_51" data-name="Ellipse 51" cx="7.287" cy="7.287" r="7.287" transform="translate(208.617 100.525)" fill="#ffb8b8"/>
    <path id="Tracé_300" data-name="Tracé 300" d="M813.55,440.7l.634-3.168h1.584l3.063-4.407,2.64,2.506.634,14.891H804.995l1.584-15.842,2.307-1.555s-.406,5.357,4.03,5.357Z" transform="translate(-597.962 -316.727)" fill="#575a89"/>
    <path id="Tracé_301" data-name="Tracé 301" d="M805.079,444.428s2.624,3.322,6.54,3.087,7.718-3.4,7.718-3.4l5.386,41.188s-6.02.634-7.921-2.535l-14.574-.317.317-38.336Z" transform="translate(-596.145 -323.943)" fill="#d0cde1"/>
    <path id="Tracé_302" data-name="Tracé 302" d="M790.251,431.531l-13.862,6.854,3.485,19.644s1.267,7.287,0,10.139-2.535,21.861-2.535,21.861,14.257,1.584,12.356-20.911S790.251,431.531,790.251,431.531Z" transform="translate(-579.178 -315.682)" fill="#2f2e41"/>
    <path id="Tracé_303" data-name="Tracé 303" d="M792.076,562.339l1.9,1.9s5.7,9.822,8.238,6.337-4.436-9.5-4.436-9.5l-3.168-2.535Z" transform="translate(-589.479 -399.081)" fill="#ffb8b8"/>
    <path id="Tracé_304" data-name="Tracé 304" d="M845.314,431.531l13.721,6.854-4.752,23.446s.317,7.6,1.9,11.723.951,16.158.951,16.158-1.9,7.287-6.02-10.772S845.314,431.531,845.314,431.531Z" transform="translate(-624.438 -315.682)" fill="#2f2e41"/>
    <path id="Tracé_305" data-name="Tracé 305" d="M853.572,536H850.72s-9.505-1.267-8.871,2.535,9.505,2.851,9.505,2.851l3.485-.317Z" transform="translate(-622.143 -384.151)" fill="#ffb8b8"/>
    <path id="Tracé_306" data-name="Tracé 306" d="M766.486,448.725l-2.218.951a51.239,51.239,0,0,0-2.535,6.337c-.317,1.584-4.119,20.594-3.168,22.812s10.455,13.941,10.455,13.941l5.386-5.7-7.921-10.772,2.218-13.624Z" transform="translate(-567.374 -326.973)" fill="#2f2e41"/>
    <path id="Tracé_307" data-name="Tracé 307" d="M870.83,449.648l4.192.354.877.28s8.871,24.079,6.97,27.881-10.139,10.772-10.139,10.772l-2.218-9.822,4.119-3.8-4.119-12.673Z" transform="translate(-640.985 -327.579)" fill="#2f2e41"/>
    <path id="Tracé_308" data-name="Tracé 308" d="M820.107,382.53s1.906-3.577-2.288-3.9c0,0-3.813-2.276-6.863.325,0,0-2.669-.65-3.432,1.3a1.335,1.335,0,0,1,.763-1.626s-2.669-.65-2.669,2.6a10,10,0,0,0,0,6.179c1.144,2.927,1.525,3.252,1.525,3.252s-1.88-6.137,2.7-6.462,9.7-3.132,10.077.445,1.144,4.553,1.144,4.553S824.492,383.993,820.107,382.53Z" transform="translate(-598.038 -280.337)" fill="#2f2e41"/>
  </g>
</svg>
