<svg id="Groupe_26" data-name="Groupe 26" xmlns="http://www.w3.org/2000/svg" width="152.935" height="106.405" viewBox="0 0 152.935 106.405">
  <ellipse id="Ellipse_56" data-name="Ellipse 56" cx="30.471" cy="2.314" rx="30.471" ry="2.314" transform="translate(0 101.776)" fill="#e6e6e6"/>
  <path id="Tracé_337" data-name="Tracé 337" d="M324.272,228.659c5.3-2.256,11.908-.826,18.358.165.06-1.2.788-2.663.025-3.5a2.546,2.546,0,0,1-.284-3.164c1.425-2.751-.617-5.678-2.678-8.112a4.565,4.565,0,0,0-3.81-1.6l-3.818.273a4.573,4.573,0,0,0-4.06,3.268h0a4.468,4.468,0,0,0-1.092,3.706,2.385,2.385,0,0,0-.981,3.33,1.914,1.914,0,0,1-.024,2.335,10.779,10.779,0,0,0-1.6,3.183Z" transform="translate(-300.98 -205.05)" fill="#2f2e41"/>
  <path id="Tracé_338" data-name="Tracé 338" d="M510.2,621.637H402.124a3.624,3.624,0,0,1-3.624-3.624h0a488.506,488.506,0,0,1,115.328,0h0A3.624,3.624,0,0,1,510.2,621.637Z" transform="translate(-360.893 -529.652)" fill="#2f2e41"/>
  <path id="Tracé_339" data-name="Tracé 339" d="M513.828,311.333,398.5,311.12l13.366-22.49.064-.107V238.958a4.581,4.581,0,0,1,4.582-4.581h78.666a4.581,4.581,0,0,1,4.581,4.582v49.906Z" transform="translate(-360.893 -222.759)" fill="#3f3d56"/>
  <path id="Tracé_340" data-name="Tracé 340" d="M485.1,250.957a1.494,1.494,0,0,0-1.492,1.492v45.193a1.494,1.494,0,0,0,1.492,1.492h79.515a1.494,1.494,0,0,0,1.492-1.492V252.449a1.494,1.494,0,0,0-1.492-1.492Z" transform="translate(-429.591 -236.141)" fill="#fff"/>
  <path id="Tracé_341" data-name="Tracé 341" d="M473.164,531.718a.641.641,0,0,0-.581.372l-4.118,8.953a.639.639,0,0,0,.581.907h86.61a.639.639,0,0,0,.572-.926l-4.477-8.953a.636.636,0,0,0-.572-.354Z" transform="translate(-417.317 -462.756)" fill="#2f2e41"/>
  <circle id="Ellipse_57" data-name="Ellipse 57" cx="0.959" cy="0.959" r="0.959" transform="translate(93.992 12.151)" fill="#fff"/>
  <path id="Tracé_342" data-name="Tracé 342" d="M644.7,593.619a.64.64,0,0,0-.617.473l-1.033,3.837a.639.639,0,0,0,.617.806h19.647a.639.639,0,0,0,.6-.849l-1.328-3.837a.64.64,0,0,0-.6-.43Z" transform="translate(-558.262 -512.719)" fill="#2f2e41"/>
  <path id="Tracé_343" data-name="Tracé 343" d="M352.2,337.135v.853H264.306l.066-.106v-.746Z" transform="translate(-213.333 -272.116)" fill="#2f2e41"/>
  <path id="Tracé_1147" data-name="Tracé 1147" d="M14.922,0A14.922,14.922,0,1,1,0,14.922,14.922,14.922,0,0,1,14.922,0Z" transform="translate(121.492 0)" fill="#eb786b"/>
  <path id="Tracé_344" data-name="Tracé 344" d="M887.574,246.859H875.21a.853.853,0,0,1-.853-.853v-7.461a.854.854,0,0,1,.853-.853h12.364a.854.854,0,0,1,.853.853v7.461A.853.853,0,0,1,887.574,246.859Zm-12.364-8.314v7.461h12.365v-7.461Z" transform="translate(-744.978 -225.435)" fill="#fff"/>
  <path id="Tracé_345" data-name="Tracé 345" d="M898.612,210h-7.674v-3.411c0-2.47,1.614-4.264,3.837-4.264s3.837,1.793,3.837,4.264Zm-6.822-.853h5.969v-2.558c0-2.008-1.227-3.411-2.984-3.411s-2.984,1.4-2.984,3.411Z" transform="translate(-758.361 -196.885)" fill="#fff"/>
  <circle id="Ellipse_59" data-name="Ellipse 59" cx="0.853" cy="0.853" r="0.853" transform="translate(135.561 15.775)" fill="#fff"/>
  <path id="Tracé_346" data-name="Tracé 346" d="M594.869,347.961H533.417a1.139,1.139,0,0,1-1.138-1.138V331.579a1.139,1.139,0,0,1,1.138-1.138h61.452a1.139,1.139,0,0,1,1.138,1.138v15.244A1.139,1.139,0,0,1,594.869,347.961ZM533.417,330.9a.683.683,0,0,0-.683.683v15.243a.683.683,0,0,0,.683.683h61.452a.684.684,0,0,0,.683-.683V331.579a.684.684,0,0,0-.683-.683Z" transform="translate(-468.872 -300.296)" fill="#e6e6e6"/>
  <circle id="Ellipse_60" data-name="Ellipse 60" cx="4.636" cy="4.636" r="4.636" transform="translate(69.458 33.684)" fill="#e6e6e6"/>
  <path id="Tracé_347" data-name="Tracé 347" d="M639.969,356.8a.773.773,0,0,0,0,1.545h36.422a.773.773,0,0,0,0-1.545Z" transform="translate(-555.17 -321.576)" fill="#e6e6e6"/>
  <path id="Tracé_348" data-name="Tracé 348" d="M639.969,380.842a.773.773,0,0,0,0,1.545h15.673a.773.773,0,0,0,0-1.545Z" transform="translate(-555.17 -340.977)" fill="#e6e6e6"/>
  <path id="Tracé_349" data-name="Tracé 349" d="M418.877,354.743l-11.36,6.039-.144-5.033a33.642,33.642,0,0,0,10.5-3.451l1.188-2.935a1.99,1.99,0,0,1,3.382-.516h0a1.99,1.99,0,0,1-.175,2.713Z" transform="translate(-368.055 -314.566)" fill="#ffb8b8"/>
  <path id="Tracé_350" data-name="Tracé 350" d="M322.769,531.392h0a2.232,2.232,0,0,1,.283-1.806l2.5-3.83a4.361,4.361,0,0,1,5.657-1.493h0a3.618,3.618,0,0,0,.362,4.712,22.685,22.685,0,0,0-5.388,3.673,2.232,2.232,0,0,1-3.411-1.257Z" transform="translate(-299.704 -456.345)" fill="#2f2e41"/>
  <path id="Tracé_351" data-name="Tracé 351" d="M382.082,467.09h0a4.282,4.282,0,0,1-3.639,2.079l-16.578.126-.719-4.17,7.334-2.157-6.183-4.745,6.758-7.909,12.275,11.441A4.282,4.282,0,0,1,382.082,467.09Z" transform="translate(-330.743 -397.05)" fill="#2f2e41"/>
  <path id="Tracé_352" data-name="Tracé 352" d="M320.5,447.463h-3.883c-3.486-23.895-7.034-47.856,3.451-56.8l12.366,2.013-1.582,10.5-6.9,7.909Z" transform="translate(-291.964 -348.905)" fill="#2f2e41"/>
  <path id="Tracé_353" data-name="Tracé 353" d="M335.658,684.495h0a2.232,2.232,0,0,1-1.806-.283l-4.216-.567a4.361,4.361,0,0,1-1.493-5.657h0a3.618,3.618,0,0,0,4.712-.363c.962,1.942,2.546,1.823,4.059,3.459a2.232,2.232,0,0,1-1.257,3.411Z" transform="translate(-303.712 -580.524)" fill="#2f2e41"/>
  <path id="Tracé_354" data-name="Tracé 354" d="M369.081,266.377l-7.19-1.726a12.433,12.433,0,0,0,.719-8.053l4.889-.144A37.535,37.535,0,0,0,369.081,266.377Z" transform="translate(-331.345 -240.579)" fill="#ffb8b8"/>
  <path id="Tracé_355" data-name="Tracé 355" d="M353.078,315.16c-5.234,3.567-8.932.122-11.754-5.192.392-3.252-.243-7.144-1.419-11.372a7.741,7.741,0,0,1,4.726-9.334h0l6.183,2.588c5.25,4.28,6.284,8.915,4.314,13.8Z" transform="translate(-313.365 -267.058)" fill="#006e77"/>
  <path id="Tracé_356" data-name="Tracé 356" d="M277.32,301.868l-5.752,3.02,10.209,6.039,1.421,3.5a1.859,1.859,0,0,1-1.117,2.455h0a1.859,1.859,0,0,1-2.461-1.648l-.144-2.442L266.5,308.514a3.034,3.034,0,0,1-1.9-1.854h0a3.034,3.034,0,0,1,1.138-3.53l10.434-7.159Z" transform="translate(-252.669 -272.475)" fill="#ffb8b8"/>
  <path id="Tracé_357" data-name="Tracé 357" d="M328.648,296.089c-2.4-1.051-4.58.091-7.334,1.007l-.431-7.621c2.734-1.457,5.341-1.85,7.765-.719Z" transform="translate(-298.245 -266.121)" fill="#006e77"/>
  <circle id="Ellipse_61" data-name="Ellipse 61" cx="4.59" cy="4.59" r="4.59" transform="translate(28.682 10.47)" fill="#ffb8b8"/>
  <path id="Tracé_358" data-name="Tracé 358" d="M361.721,231.985c-4.545.445-8.008-.3-10.221-2.415v-1.7h9.836Z" transform="translate(-322.957 -217.504)" fill="#2f2e41"/>
</svg>
